# xmcd
# 
# Track frame offsets:
#     183
#     12440
#     24818
#     33015
#     40835
#     50640
#     60448
#     71708
#     79753
#     88015
#     100275
#     111008
#     120675
#     131515
#     141538
#     151315
#     159623
# 
# Disc length: 2272
# 
# Revision: 1
# Processed by: cddbd v1.5.2PL0 Copyright (c) Steve Scherf et al.
# Submitted via: fre:ac v1.0.27
# 
DISCID=dc08de11
DTITLE=Johnny Cash - 16 Greatest Hits
DYEAR=1988
DGENRE=Country
TTITLE0=I Walk the Line
TTITLE1=Folsom Prison Blues
TTITLE2=Sugartime
TTITLE3=Hey Good Lookin`
TTITLE4=Ballad of a Teenage Queen
TTITLE5=Hey Porter
TTITLE6=Big River
TTITLE7=Guess Things Happen That Way
TTITLE8=Country Boy
TTITLE9=Next in Line
TTITLE10=Cold Cold Heart
TTITLE11=Rock Island Line
TTITLE12=The Ways of a Woman in Love
TTITLE13=Get Rhythm
TTITLE14=Born To Loose
TTITLE15=Wreck of the Old `97
TTITLE16=I Love you Because (Special Bonustrack)
EXTD=
EXTT0=
EXTT1=
EXTT2=
EXTT3=
EXTT4=
EXTT5=
EXTT6=
EXTT7=
EXTT8=
EXTT9=
EXTT10=
EXTT11=
EXTT12=
EXTT13=
EXTT14=
EXTT15=
EXTT16=
PLAYORDER=
